<?xml version="1.0" encoding="UTF-8" standalone="no"?>
<svg
   fill="#000000"
   viewBox="0 0 15 15"
   width="15"
   height="15"
   version="1.1"
   id="svg826"
   sodipodi:docname="info.svg"
   inkscape:version="1.1.1 (c3084ef, 2021-09-22)"
   xmlns:inkscape="http://www.inkscape.org/namespaces/inkscape"
   xmlns:sodipodi="http://sodipodi.sourceforge.net/DTD/sodipodi-0.dtd"
   xmlns="http://www.w3.org/2000/svg"
   xmlns:svg="http://www.w3.org/2000/svg">
  <defs
     id="defs830" />
  <sodipodi:namedview
     id="namedview828"
     pagecolor="#ffffff"
     bordercolor="#666666"
     borderopacity="1.0"
     inkscape:pageshadow="2"
     inkscape:pageopacity="0.0"
     inkscape:pagecheckerboard="0"
     showgrid="false"
     inkscape:zoom="11.978389"
     inkscape:cx="16.488027"
     inkscape:cy="25.003362"
     inkscape:window-width="1312"
     inkscape:window-height="1027"
     inkscape:window-x="0"
     inkscape:window-y="25"
     inkscape:window-maximized="0"
     inkscape:current-layer="svg826"
     width="15px" />
  <path
     d="M 7.5000005,0 C 3.3577177,0 0,3.3577171 0,7.5000002 0,11.642282 3.3577177,15 7.5000005,15 11.642283,15 15,11.642282 15,7.5000002 15,3.3577171 11.642283,0 7.5000005,0 Z m 0,2.9347825 c 0.5403254,0 0.9782604,0.437935 0.9782604,0.9782614 0,0.5403254 -0.437935,0.9782605 -0.9782604,0.9782605 -0.5403264,0 -0.9782614,-0.4379351 -0.9782614,-0.9782605 0,-0.5403264 0.437935,-0.9782614 0.9782614,-0.9782614 z M 8.8043483,11.73913 H 8.1521744 6.8478266 6.1956527 V 11.086956 H 6.8478266 V 6.8478262 H 6.1956527 V 6.1956523 h 0.6521739 1.3043478 v 0.6521739 4.2391298 h 0.6521739 z"
     id="path824"
     style="stroke-width:0.326088" />
</svg>
