<?xml version="1.0" encoding="UTF-8" standalone="no"?>
<!-- Generator: Adobe Illustrator 18.1.1, SVG Export Plug-In . SVG Version: 6.00 Build 0)  -->

<svg version="1.1" id="Capa_1" x="0px" y="0px" viewBox="0 0 613.58713 544.34184" xml:space="preserve" sodipodi:docname="map.svg" inkscape:version="1.1.1 (c3084ef, 2021-09-22)" width="613.58716" height="544.34186"
   xmlns:inkscape="http://www.inkscape.org/namespaces/inkscape"
   xmlns:sodipodi="http://sodipodi.sourceforge.net/DTD/sodipodi-0.dtd"
   xmlns="http://www.w3.org/2000/svg"
   xmlns:svg="http://www.w3.org/2000/svg">
   <defs id="defs860">
      <inkscape:path-effect effect="fillet_chamfer" id="path-effect1910" is_visible="true" lpeversion="1" satellites_param="F,0,0,1,0,40,0,1 @ F,0,0,1,0,40,0,1 @ F,0,0,1,0,40,0,1 @ F,0,0,1,0,40,0,1" unit="px" method="auto" mode="F" radius="40" chamfer_steps="1" flexible="false" use_knot_distance="true" apply_no_radius="true" apply_with_radius="true" only_selected="false" hide_knots="false" />
   </defs>
   <sodipodi:namedview id="namedview858" pagecolor="#ffffff" bordercolor="#666666" borderopacity="1.0" inkscape:pageshadow="2" inkscape:pageopacity="0.0" inkscape:pagecheckerboard="0" showgrid="false" inkscape:zoom="0.83073627" inkscape:cx="338.85604" inkscape:cy="331.63353" inkscape:window-width="1440" inkscape:window-height="847" inkscape:window-x="0" inkscape:window-y="25" inkscape:window-maximized="0" inkscape:current-layer="Capa_1" fit-margin-top="0" fit-margin-left="0" fit-margin-right="0" fit-margin-bottom="0" />
   <g id="g827" style="stroke:#000000;stroke-opacity:1" transform="matrix(1.0641603,0,0,1.0425664,-20.650551,-94.774157)">
   </g>
   <g id="g829" style="stroke:#000000;stroke-opacity:1" transform="matrix(1.0641603,0,0,1.0425664,-20.650551,-94.774157)">
   </g>
   <g id="g831" style="stroke:#000000;stroke-opacity:1" transform="matrix(1.0641603,0,0,1.0425664,-20.650551,-94.774157)">
   </g>
   <g id="g833" style="stroke:#000000;stroke-opacity:1" transform="matrix(1.0641603,0,0,1.0425664,-20.650551,-94.774157)">
   </g>
   <g id="g835" style="stroke:#000000;stroke-opacity:1" transform="matrix(1.0641603,0,0,1.0425664,-20.650551,-94.774157)">
   </g>
   <g id="g837" style="stroke:#000000;stroke-opacity:1" transform="matrix(1.0641603,0,0,1.0425664,-20.650551,-94.774157)">
   </g>
   <g id="g839" style="stroke:#000000;stroke-opacity:1" transform="matrix(1.0641603,0,0,1.0425664,-20.650551,-94.774157)">
   </g>
   <g id="g841" style="stroke:#000000;stroke-opacity:1" transform="matrix(1.0641603,0,0,1.0425664,-20.650551,-94.774157)">
   </g>
   <g id="g843" style="stroke:#000000;stroke-opacity:1" transform="matrix(1.0641603,0,0,1.0425664,-20.650551,-94.774157)">
   </g>
   <g id="g845" style="stroke:#000000;stroke-opacity:1" transform="matrix(1.0641603,0,0,1.0425664,-20.650551,-94.774157)">
   </g>
   <g id="g847" style="stroke:#000000;stroke-opacity:1" transform="matrix(1.0641603,0,0,1.0425664,-20.650551,-94.774157)">
   </g>
   <g id="g849" style="stroke:#000000;stroke-opacity:1" transform="matrix(1.0641603,0,0,1.0425664,-20.650551,-94.774157)">
   </g>
   <g id="g851" style="stroke:#000000;stroke-opacity:1" transform="matrix(1.0641603,0,0,1.0425664,-20.650551,-94.774157)">
   </g>
   <g id="g853" style="stroke:#000000;stroke-opacity:1" transform="matrix(1.0641603,0,0,1.0425664,-20.650551,-94.774157)">
   </g>
   <g id="g855" style="stroke:#000000;stroke-opacity:1" transform="matrix(1.0641603,0,0,1.0425664,-20.650551,-94.774157)">
   </g>
   <path style="fill:none;stroke:#000000;stroke-width:40;stroke-linecap:square;stroke-linejoin:round;stroke-miterlimit:4;stroke-dasharray:none;stroke-dashoffset:60.92;stroke-opacity:1" id="rect944" width="573.36566" height="504.93774" x="20.110128" y="19.702055" inkscape:path-effect="#path-effect1910" d="M 60.110128,19.702055 H 553.47579 a 40,40 45 0 1 40,40 V 484.6398 a 40,40 135 0 1 -40,40 H 60.110128 a 40,40 45 0 1 -40,-40 V 59.702055 a 40,40 135 0 1 40,-40 z" sodipodi:type="rect" />
   <path style="fill:none;stroke:#000000;stroke-width:40;stroke-linecap:butt;stroke-linejoin:miter;stroke-miterlimit:4;stroke-dasharray:none;stroke-opacity:1" d="M 14.675371,375.55449 360.68823,16.152406" id="path1067" sodipodi:nodetypes="cc" />
   <path style="fill:none;stroke:#000000;stroke-width:40;stroke-linecap:butt;stroke-linejoin:round;stroke-miterlimit:4;stroke-dasharray:none;stroke-opacity:1" d="M 32.791229,506.00412 234.78303,297.46218 448.55013,523.75238" id="path1267" sodipodi:nodetypes="ccc" />
   <path style="fill:none;stroke:#000000;stroke-width:40;stroke-linecap:butt;stroke-linejoin:round;stroke-miterlimit:4;stroke-dasharray:none;stroke-opacity:1" d="M 593.47705,524.63978 305.6057,224.08583 504.61284,15.382106" id="path1267-9" sodipodi:nodetypes="ccc" />
   <path style="fill:none;stroke:#000000;stroke-width:40;stroke-linecap:butt;stroke-linejoin:round;stroke-miterlimit:4;stroke-dasharray:none;stroke-opacity:1" d="M 409.83674,113.1382 514.68657,224.46047 404.04114,339.30742" id="path1267-0" sodipodi:nodetypes="ccc" />
</svg>
